extratorrent.com 
http://extratorrent.com/torrent/2191039/

Format : AVI
Format/Info : Audio Video Interleave
File size : 1.31 GiB
Duration : 1h 21mn
Overall bit rate : 2 284 Kbps
Writing application : VirtualDubMod 1.5.4.1 (build 2178/release)
Writing library : VirtualDubMod build 2178/release

Video
ID : 0
Format : MPEG-4 Visual
Format profile : Simple@L0
Format settings, BVOP : No
Format settings, QPel : No
Format settings, GMC : No warppoints
Format settings, Matrix : Default (H.263)
Codec ID : XVID
Codec ID/Hint : XviD
Duration : 1h 21mn
Bit rate : 1 829 Kbps
Width : 720 pixels
Height : 384 pixels
Display aspect ratio : 1.875
Frame rate : 23.976 fps
Resolution : 8 bits
Colorimetry : 4:2:0
Scan type : Progressive
Bits/(Pixel*Frame) : 0.276
Stream size : 1.05 GiB (80%)
Writing library : XviD 1.0.1 (UTC 2004-06-05)


Audio
ID : 1
Format : AC-3
Format/Info : Audio Coding 3
Codec ID : 2000
Duration : 1h 21mn
Bit rate mode : Constant
Bit rate : 448 Kbps
Channel(s) : 6 channels
Channel positions : Front: L C R, Surround: L R, LFE
Sampling rate : 48.0 KHz
Stream size : 263 MiB (20%)
Alignment : Split accross interleaves
Interleave, duration : 83 ms (2.00 video frames)
Interleave, preload duration : 500 ms
Language : English


Encoders Notes: The film are Ps3, Xbox 360 & PC Friendly.They can also be burnt to disc via programs like Convert X to DVD.

PLOT:An orphaned dinosaur raised by lemurs joins an arduous trek to a sancturary after a meteorite shower destroys his family home